<svg width="140" height="38" viewBox="0 0 140 38" fill="none" xmlns="http://www.w3.org/2000/svg">
<g clip-path="url(#clip0_63_14)">
<path d="M158 -30H-27V70H158V-30Z" fill="white"/>
<path d="M17.3108 9H11.4541C11.3671 9 11.2806 9.0342 11.2213 9.0984L5.0803 15.7249C4.9031 15.922 5.0451 16.2285 5.3171 16.2285H11.3159L17.5474 9.5035C17.7287 9.3065 17.5829 9 17.3108 9ZM17.3148 16.2285H11.3159L5.0803 22.961C4.8991 23.154 5.0451 23.4605 5.3133 23.4605H11.3159L17.5474 16.7318C17.7287 16.5388 17.5829 16.2285 17.3148 16.2285ZM17.5395 23.9753L11.4105 30.5905C11.3477 30.6548 11.2607 30.6928 11.1701 30.6928H5.3291C5.053 30.6928 4.9069 30.3784 5.0885 30.1818L11.3159 23.4605H17.2989C17.5749 23.4605 17.7209 23.7748 17.5395 23.9753Z" fill="#94C53F"/>
<path d="M24.8845 26.8892V12.6157H34.1865V14.7231H27.4049V18.3892H32.9725V20.5199H27.4049V24.7815H34.118V26.8892H24.8845Z" fill="#242424"/>
<path d="M39.3759 26.6715C38.7115 26.4037 38.1311 26.032 37.6346 25.556C37.1381 25.0804 36.7527 24.5154 36.4777 23.8614C36.2029 23.2075 36.0654 22.4862 36.0654 21.6981C36.0654 20.9397 36.2029 20.2267 36.4777 19.5573C36.7527 18.8883 37.1381 18.3046 37.6346 17.8069C38.1311 17.3088 38.7115 16.9148 39.3759 16.6248C40.0407 16.3345 40.7694 16.1897 41.5639 16.1897C42.5414 16.1897 43.397 16.3731 44.1297 16.7396C44.863 17.1064 45.4433 17.6101 45.8715 18.252L44.428 19.8327L44.2904 19.9931L44.107 19.8554C44.107 19.7332 44.0918 19.6077 44.0612 19.4774C44.0305 19.3478 43.9313 19.1912 43.7634 19.0078C43.4732 18.718 43.1522 18.5232 42.8013 18.4239C42.4495 18.3243 42.0449 18.2747 41.587 18.2747C41.205 18.2747 40.8421 18.3516 40.4984 18.5055C40.155 18.6589 39.8455 18.8782 39.5705 19.163C39.2956 19.448 39.0819 19.8029 38.929 20.2267C38.7764 20.6509 38.6999 21.141 38.6999 21.6963C38.6999 22.194 38.7802 22.6437 38.9407 23.0456C39.101 23.4479 39.3145 23.7915 39.582 24.0767C39.8493 24.3617 40.1622 24.5811 40.5213 24.7345C40.88 24.8884 41.2582 24.9647 41.6557 24.9647C41.9763 24.9647 42.2894 24.9189 42.5949 24.8273C42.9006 24.7355 43.2022 24.5947 43.5001 24.4035C43.7979 24.2129 44.0763 23.9568 44.336 23.6363L45.7795 25.2854C45.2145 25.9123 44.5575 26.3662 43.809 26.649C43.0606 26.9312 42.3044 27.0728 41.5408 27.0728C40.7621 27.0728 40.0407 26.9386 39.3759 26.6715Z" fill="#242424"/>
<path d="M62.6426 18.8026H64.7273C65.4606 18.8026 66.0107 18.6305 66.3771 18.287C66.7434 17.9434 66.927 17.4738 66.927 16.8781C66.927 16.4965 66.8467 16.1562 66.6866 15.8586C66.5259 15.5605 66.2813 15.3197 65.9531 15.1367C65.6247 14.9534 65.216 14.8618 64.7273 14.8618H62.6426V18.8026ZM60.0308 26.8902V12.6165H64.544C65.7201 12.6165 66.6784 12.7885 67.4195 13.1319C68.1602 13.4755 68.7061 13.9644 69.0574 14.5981C69.4087 15.2323 69.5844 15.9694 69.5844 16.8094C69.5844 17.3286 69.4737 17.848 69.2526 18.3671C69.0309 18.8863 68.7218 19.3525 68.3245 19.7648C67.9272 20.177 67.454 20.4903 66.9041 20.704L69.9742 26.8902H67.2478L64.361 20.956H62.6426V26.8902H60.0308Z" fill="#242424"/>
<path d="M76.16 25.0103C76.665 25.0103 77.1 24.8671 77.467 24.5799C77.833 24.2926 78.127 23.8954 78.348 23.3874C78.57 22.8795 78.681 22.2942 78.681 21.6316C78.681 20.9395 78.57 20.3436 78.348 19.8427C78.127 19.3426 77.833 18.9558 77.467 18.6834C77.1 18.4113 76.665 18.2747 76.16 18.2747C75.702 18.2747 75.286 18.4113 74.912 18.6834C74.537 18.9558 74.24 19.3426 74.018 19.8427C73.797 20.3436 73.686 20.9395 73.686 21.6316C73.686 22.2942 73.793 22.8795 74.007 23.3874C74.221 23.8954 74.515 24.2926 74.889 24.5799C75.263 24.8671 75.687 25.0103 76.16 25.0103ZM76.16 27.0728C75.213 27.0728 74.354 26.8448 73.583 26.3895C72.8113 25.9342 72.2046 25.2961 71.7617 24.4752C71.3185 23.6542 71.0969 22.7062 71.0969 21.6312C71.0969 20.6013 71.3185 19.6758 71.7617 18.8545C72.2046 18.0335 72.8113 17.3838 73.583 16.9063C74.354 16.4285 75.213 16.1895 76.16 16.1895C77.122 16.1895 77.989 16.4285 78.761 16.9063C79.532 17.3838 80.143 18.0335 80.594 18.8545C81.044 19.6758 81.27 20.6013 81.27 21.6312C81.27 22.7062 81.044 23.6542 80.594 24.4752C80.143 25.2961 79.532 25.9342 78.761 26.3895C77.989 26.8448 77.122 27.0728 76.16 27.0728Z" fill="#242424"/>
<path d="M86.768 27.0728C86.34 27.0728 85.935 27.0167 85.553 26.9048C85.171 26.7934 84.828 26.6223 84.522 26.3911C84.217 26.1607 83.953 25.8663 83.732 25.5094C83.51 25.1521 83.338 24.7239 83.216 24.2248C83.094 23.7265 83.033 23.1567 83.033 22.5162V16.4189H85.645V22.4794C85.645 22.9381 85.683 23.3268 85.76 23.6449C85.836 23.9635 85.951 24.2219 86.103 24.4218C86.256 24.6216 86.435 24.7658 86.641 24.8546C86.848 24.943 87.065 24.9876 87.295 24.9876C87.615 24.9876 87.909 24.9323 88.177 24.8215C88.444 24.7104 88.673 24.5439 88.864 24.322C89.055 24.0996 89.204 23.8225 89.311 23.4893C89.417 23.1567 89.471 22.7608 89.471 22.3015V16.4189H92.06V25.2228C92.06 25.5536 92.071 25.8496 92.094 26.1125C92.117 26.3752 92.182 26.6341 92.289 26.8894H89.929C89.853 26.7265 89.799 26.5634 89.769 26.4007C89.738 26.238 89.719 26.0705 89.712 25.8996C89.704 25.7283 89.7 25.57 89.7 25.423C89.532 25.6829 89.341 25.9155 89.127 26.122C88.913 26.3282 88.68 26.4999 88.429 26.6373C88.177 26.7751 87.909 26.882 87.627 26.9581C87.344 27.0344 87.058 27.0728 86.768 27.0728Z" fill="#242424"/>
<path d="M103.768 25.8817C103.248 26.2633 102.696 26.5564 102.107 26.7635C101.519 26.9703 100.888 27.0728 100.217 27.0728C99.6049 27.0728 99.0749 26.9741 98.6249 26.7795C98.1749 26.5847 97.7989 26.2694 97.5019 25.8335C97.2049 25.3977 96.9899 24.8193 96.8609 24.0982C96.7309 23.377 96.6879 22.4834 96.7349 21.4169L96.8509 18.4585H94.6719L94.7179 16.4199H96.9309L97.0319 13.8933L99.7129 13.5538L99.9199 13.5317L99.9419 13.7346C99.8799 13.839 99.8199 13.9435 99.7589 14.0479C99.6969 14.1542 99.6589 14.3331 99.6449 14.5882L99.4959 16.4199H102.921L102.897 18.4585H99.4739L99.3229 21.3487C99.2769 22.3226 99.3119 23.0757 99.4259 23.6062C99.5399 24.1384 99.7169 24.5019 99.9539 24.6967C100.189 24.8916 100.476 24.988 100.812 24.988C101.302 24.988 101.74 24.8896 102.129 24.6907C102.519 24.4919 102.882 24.2627 103.218 24.0018L103.768 25.8817Z" fill="#242424"/>
<path d="M108.259 20.4055H112.795C112.795 20.0572 112.746 19.7451 112.646 19.4693C112.547 19.1934 112.406 18.9612 112.222 18.7726C112.039 18.5836 111.814 18.4424 111.546 18.3478C111.279 18.2532 110.97 18.2058 110.618 18.2058C110.328 18.2058 110.049 18.246 109.782 18.3259C109.515 18.4057 109.274 18.54 109.061 18.7284C108.847 18.9176 108.671 19.1502 108.534 19.4256C108.397 19.7015 108.305 20.0281 108.259 20.4055ZM111.031 27.0728C110.267 27.0728 109.561 26.9535 108.912 26.715C108.262 26.4768 107.698 26.1306 107.216 25.6761C106.735 25.222 106.365 24.6596 106.105 23.989C105.845 23.3189 105.716 22.5589 105.716 21.7094C105.716 20.8455 105.845 20.0709 106.105 19.3856C106.365 18.7005 106.72 18.1195 107.171 17.6424C107.621 17.1656 108.152 16.8043 108.763 16.5589C109.374 16.313 110.031 16.1897 110.733 16.1897C111.359 16.1897 111.947 16.295 112.497 16.5049C113.047 16.7145 113.532 17.0331 113.953 17.4609C114.372 17.8883 114.704 18.4203 114.949 19.0578C115.193 19.6951 115.315 20.4336 115.315 21.2733C115.315 21.4232 115.312 21.6033 115.304 21.813C115.296 22.0233 115.285 22.203 115.27 22.3529H108.213C108.243 22.8289 108.342 23.2366 108.511 23.5752C108.679 23.9139 108.9 24.1918 109.175 24.4079C109.45 24.6242 109.756 24.7861 110.092 24.8946C110.427 25.0024 110.779 25.0567 111.146 25.0567C111.466 25.0567 111.776 25.0261 112.073 24.9647C112.371 24.9038 112.654 24.7968 112.921 24.6441C113.189 24.4917 113.444 24.2926 113.689 24.0484L115.018 25.3316C114.682 25.7287 114.303 26.0611 113.883 26.3282C113.463 26.5953 113.013 26.7863 112.532 26.901C112.051 27.0153 111.55 27.0728 111.031 27.0728Z" fill="#242424"/>
<path d="M127 17.4043L125.9 19.5815L125.831 19.7642L125.624 19.6738C125.58 19.5511 125.534 19.4248 125.488 19.2943C125.441 19.1657 125.327 19.0171 125.144 18.8482C124.929 18.6797 124.704 18.5511 124.467 18.4587C124.23 18.3663 123.975 18.3201 123.7 18.3201C123.335 18.3201 122.983 18.3804 122.646 18.5009C122.31 18.6194 122.017 18.806 121.764 19.0591C121.513 19.3123 121.314 19.6377 121.17 20.0334C121.023 20.427 120.951 20.893 120.951 21.4312V26.89H118.315V16.4201H120.997L120.985 18.1575C121.013 18.095 121.045 18.0349 121.077 17.9767C121.284 17.6112 121.543 17.2898 121.856 17.0147C122.17 16.7393 122.513 16.5346 122.887 16.3958C123.26 16.2595 123.648 16.1892 124.043 16.1892C124.64 16.1892 125.178 16.2856 125.658 16.4764C126.141 16.6672 126.588 16.9765 127 17.4043Z" fill="#242424"/>
<path d="M52.3322 25.0103C52.8365 25.0103 53.2715 24.8671 53.6383 24.5799C54.0048 24.2926 54.2986 23.8954 54.5202 23.3874C54.7415 22.8795 54.8526 22.2942 54.8526 21.6316C54.8526 20.9395 54.7415 20.3436 54.5202 19.8427C54.2986 19.3426 54.0048 18.9558 53.6383 18.6834C53.2715 18.4113 52.8365 18.2747 52.3322 18.2747C51.8738 18.2747 51.4577 18.4113 51.0835 18.6834C50.7093 18.9558 50.4115 19.3426 50.1901 19.8427C49.9686 20.3436 49.8577 20.9395 49.8577 21.6316C49.8577 22.2942 49.9648 22.8795 50.1783 23.3874C50.3926 23.8954 50.6864 24.2926 51.0606 24.5799C51.4348 24.8671 51.8588 25.0103 52.3322 25.0103ZM52.3322 27.0728C51.3848 27.0728 50.526 26.8448 49.7545 26.3895C48.9833 25.9342 48.3763 25.2961 47.9336 24.4752C47.4902 23.6542 47.2688 22.7062 47.2688 21.6312C47.2688 20.6013 47.4902 19.6758 47.9336 18.8545C48.3763 18.0335 48.9833 17.3838 49.7545 16.9063C50.526 16.4285 51.3848 16.1895 52.3322 16.1895C53.2944 16.1895 54.1609 16.4285 54.9327 16.9063C55.7038 17.3838 56.3149 18.0335 56.7654 18.8545C57.2155 19.6758 57.4413 20.6013 57.4413 21.6312C57.4413 22.7062 57.2155 23.6542 56.7654 24.4752C56.3149 25.2961 55.7038 25.9342 54.9327 26.3895C54.1609 26.8448 53.2944 27.0728 52.3322 27.0728Z" fill="#242424"/>
</g>
<defs>
<clipPath id="clip0_63_14">
<rect width="131" height="38" fill="white"/>
</clipPath>
</defs>
</svg>
