<?xml version="1.0" encoding="UTF-8"?> <svg xmlns="http://www.w3.org/2000/svg" width="290" height="290" viewBox="0 0 290 290" fill="none"> <circle cx="145" cy="145" r="145" fill="#94C53F"></circle> <path d="M150.203 153.007C149.279 152.591 148.355 152.131 147.443 151.643C147.941 151.326 148.417 151.021 148.879 150.732L151.215 152.325L150.203 153.007ZM145.083 156.474L142.196 154.504C143.209 154.029 144.166 153.528 145.083 153.03C146.005 153.528 146.968 154.029 147.991 154.504L145.083 156.474ZM151.055 164.019L145.083 168.145L139.131 164.019L145.083 159.981L151.055 164.019ZM138.971 152.325L141.298 150.732C141.747 151.021 142.222 151.326 142.731 151.643C141.819 152.131 140.905 152.591 139.984 153.007L138.971 152.325ZM145.083 148.127L146.761 149.27C146.237 149.611 145.664 149.952 145.083 150.306C144.51 149.952 143.95 149.611 143.413 149.27L145.083 148.127ZM167.206 142.079C167.154 142.017 165.938 140.763 163.811 140.763C162.703 140.763 161.546 141.119 160.39 141.788C160.183 141.896 160.059 142.126 160.098 142.358C160.111 142.42 160.937 148.114 160.304 150.559C159.832 152.4 158.272 154.553 155.435 154.553C154.828 154.553 154.208 154.455 153.552 154.272C153.552 154.272 153.526 154.272 153.526 154.259L155.667 152.81C155.827 152.702 155.925 152.532 155.925 152.338C155.925 152.144 155.827 151.971 155.667 151.863L151.422 148.943C152.76 147.933 153.612 147.215 153.72 147.117C153.844 147.009 153.927 146.864 153.927 146.701C153.927 146.544 153.867 146.386 153.746 146.278L152.989 145.511C152.881 145.403 152.723 145.341 152.592 145.341C152.468 145.341 152.334 145.39 152.235 145.462C152.189 145.485 151.066 146.35 149.364 147.53L147.663 146.35L154.332 141.764L154.854 143.089C154.939 143.296 155.12 143.44 155.365 143.453H155.388C155.597 143.453 155.791 143.332 155.886 143.151L159.065 137.308C159.173 137.114 159.148 136.882 159.026 136.701C158.918 136.544 158.737 136.456 158.551 136.456H158.466L151.895 137.442C151.675 137.465 151.481 137.623 151.422 137.845C151.373 138.051 151.435 138.281 151.592 138.439L152.661 139.379L145.083 144.584L137.523 139.379L138.584 138.439C138.742 138.281 138.814 138.051 138.742 137.845C138.693 137.623 138.512 137.465 138.279 137.442L131.708 136.456H131.623C131.429 136.456 131.243 136.544 131.148 136.701C131.024 136.882 131.014 137.114 131.109 137.308L134.275 143.151C134.386 143.332 134.579 143.453 134.786 143.453H134.825C135.042 143.44 135.235 143.296 135.323 143.089L135.845 141.764L142.511 146.35L140.81 147.53C139.093 146.35 137.975 145.485 137.949 145.462C137.84 145.39 137.719 145.341 137.598 145.341C137.44 145.341 137.293 145.403 137.182 145.511L136.415 146.278C136.307 146.386 136.247 146.544 136.247 146.701C136.26 146.864 136.333 147.009 136.441 147.117C136.562 147.215 137.402 147.933 138.752 148.943L134.494 151.863C134.347 151.971 134.249 152.144 134.249 152.338C134.262 152.532 134.347 152.702 134.504 152.81L136.648 154.259C136.648 154.272 136.635 154.272 136.624 154.272C135.966 154.455 135.346 154.553 134.75 154.553C131.915 154.553 130.347 152.4 129.87 150.559C129.237 148.114 130.079 142.42 130.079 142.358C130.115 142.126 130.004 141.896 129.797 141.788C128.63 141.119 127.471 140.763 126.376 140.763C124.249 140.763 123.02 142.017 122.97 142.079C122.872 142.165 122.813 142.296 122.813 142.42C122.777 142.771 122.129 151 125.94 155.16C127.35 156.694 129.188 157.474 131.416 157.474C131.806 157.474 132.23 157.461 132.645 157.401C134.812 157.143 136.926 156.57 138.971 155.842L142.504 158.228L134.675 163.521C134.517 163.642 134.422 163.813 134.422 164.006C134.422 164.192 134.504 164.373 134.675 164.481L142.524 169.909L135.834 174.544L135.323 173.245C135.235 173.049 135.042 172.904 134.825 172.891C134.812 172.878 134.812 172.878 134.786 172.878C134.579 172.878 134.386 172.999 134.275 173.183L131.109 179.036C131.014 179.22 131.024 179.462 131.148 179.633C131.243 179.79 131.429 179.875 131.623 179.875H131.708L138.279 178.902C138.512 178.866 138.693 178.708 138.742 178.502C138.814 178.282 138.742 178.05 138.584 177.892L137.5 176.932L145.083 171.685L152.674 176.932L151.592 177.892C151.422 178.05 151.36 178.282 151.422 178.502C151.481 178.708 151.665 178.866 151.895 178.902L158.466 179.875H158.551C158.737 179.875 158.918 179.79 159.026 179.633C159.148 179.462 159.16 179.22 159.065 179.036L155.886 173.183C155.791 172.999 155.597 172.878 155.388 172.878C155.375 172.878 155.365 172.878 155.365 172.891C155.12 172.904 154.939 173.049 154.854 173.245L154.332 174.544L147.65 169.909L155.497 164.481C155.657 164.373 155.752 164.192 155.752 164.006C155.752 163.813 155.657 163.642 155.497 163.521L147.676 158.228L151.215 155.842C153.248 156.57 155.375 157.143 157.531 157.401C157.957 157.461 158.37 157.474 158.76 157.474C160.989 157.474 162.837 156.694 164.237 155.16C168.056 151 167.397 142.771 167.364 142.42C167.351 142.296 167.289 142.165 167.206 142.079Z" fill="#EAF5DE"></path> <path d="M163.091 184.354C156.907 196.363 145.579 206.147 145.448 206.002C145.311 206.147 133.983 196.363 127.799 184.354C121.618 172.355 117.652 153.504 117.432 144.5C117.213 135.494 118.979 131.637 118.979 131.637C118.979 131.637 126.705 131.213 132.889 129.057C138.133 127.244 143.839 122.646 145.448 121.306C147.038 122.646 152.76 127.244 158.017 129.057C164.188 131.213 171.914 131.637 171.914 131.637C171.914 131.637 173.68 135.494 173.447 144.5C173.228 153.504 169.262 172.355 163.091 184.354ZM163.677 225.195C164.477 226.739 164.942 229.757 162.484 229.987C161.105 226.385 159.455 224.28 157.408 221.373C155.507 219.134 153.418 216.821 151.921 214.288C155.28 218.231 162.022 222.163 163.677 225.195ZM151.921 243.509C152.383 239.977 151.469 232.094 150.033 226.739C149.05 223.137 145.776 213.681 147.234 210.299C147.805 214.753 149.587 221.711 152.153 227.42C153.976 231.521 156.654 241.051 151.921 243.509ZM140.846 226.739C139.483 232.094 138.51 239.977 138.972 243.509C134.226 241.051 136.914 231.521 138.74 227.42C141.298 221.711 143.072 214.753 143.645 210.299C145.117 213.681 141.843 223.137 140.846 226.739ZM133.544 221.373C131.427 224.28 129.772 226.385 128.409 229.987C125.951 229.757 126.415 226.739 127.216 225.195C128.871 222.163 135.602 218.231 138.972 214.288C137.474 216.821 135.383 219.096 133.544 221.373ZM108.258 182.273C108.382 183.063 108.491 183.525 108.829 184.05C104.434 184.731 102.562 186.446 100.967 189.234C98.728 192.994 101.067 197.848 100.432 199.857C99.9855 201.112 98.5112 202.315 96.1718 201.22C97.3053 206.247 103.585 205.674 105.24 202.875C105.8 205.212 105.24 207.903 104.094 208.922C106.043 209.033 107.698 208.241 108.718 206.697C108.95 207.159 108.95 207.792 109.061 208.349C110.143 207.792 110.838 207.159 111.287 206.586C111.458 207.149 111.677 208.46 111.408 209.532C110.569 210.105 109.619 210.627 108.147 211.381C105.8 212.524 101.54 214.18 99.0818 214.52C97.0755 214.861 93.5949 213.717 92.6809 210.918C91.8779 208.241 89.6625 207.389 87.886 209.033C87.4367 208.693 86.1844 208.46 85.6603 209.276C85.6603 209.276 85.1 208.011 84.4054 207.389C84.8676 206.015 84.5139 204.36 83.2616 203.8C83.1531 201.112 81.498 201.112 80.9248 200.198C80.5866 199.627 80.5866 198.932 81.387 198.824C81.0488 198.313 80.3542 198.202 80.2432 198.202C80.4652 197.058 80.1218 195.635 78.5881 195.17L65.0555 167.269C65.9205 166.355 65.4712 165.043 64.4875 164.578V164.359C64.5701 164.139 64.583 163.969 64.6063 163.801C64.9729 163.739 65.4119 163.654 65.7992 163.556C68.4767 162.926 72.6519 158.993 76.2539 156.535C74.9861 157.849 69.742 161.671 67.4052 163.897C65.2285 166.063 66.14 168.229 66.4937 170.179L67.005 171.261C68.988 171.382 71.9574 172.575 74.1831 170.747C74.8777 170.068 84.6378 157.958 85.9392 156.768C85.4408 157.849 79.2723 165.611 76.4837 170.068C74.4155 173.427 77.4468 175.653 77.8005 177.587C80.0133 176.908 83.0421 178.222 84.6378 175.544C86.1844 172.975 90.9173 163.788 92.6809 161.209C91.9992 163.215 86.972 173.657 86.6337 174.568C85.4408 178.111 88.4592 178.793 89.6625 181.142C91.488 179.828 94.7878 180.85 96.0505 177.478C96.8432 175.201 98.8494 167.269 99.8822 165.152C99.766 167.501 99.0818 170.638 98.6196 174.109C98.1574 177.587 101.416 177.478 103.123 179.487C104.778 178.111 107.807 178.452 108.258 175.312C108.718 172.516 108.829 165.722 108.829 165.722C109.291 166.125 109.524 166.233 110.035 166.698C111.166 165.381 113.515 165.381 114.306 163.788C114.657 163.897 114.768 164.129 115.109 164.359C117.675 168.632 117.895 176.908 114.306 179.828C115.341 179.828 116.655 179.704 117.445 179.363C115.852 182.614 112.31 183.758 108.258 182.273ZM67.1857 152.373C66.5893 152.616 65.8947 152.92 65.3473 153.153V152.993C65.9076 152.786 66.6022 152.58 67.1857 152.373ZM125.721 82.1696C132.122 80.7959 138.618 77.2043 141.538 74.1885C143.963 74.3331 147.09 74.3563 149.463 74.2246C152.347 77.2663 158.761 80.7959 165.159 82.1696C161.446 82.1696 154.952 81.8288 154.147 80.9173C154.379 83.254 159.344 85.8929 162.592 86.6236C159.902 86.9645 157.408 86.6236 155.28 85.6631C156.434 87.3182 157.736 88.5705 159.902 89.3141C157.627 92.1131 152.954 93.9257 148.316 93.4738C149.463 94.85 151.58 95.7021 153.418 95.4697C149.256 102.116 146.163 108.93 145.435 116.828L145.409 116.816L145.396 116.841C144.704 108.93 141.637 102.116 137.487 95.4697C139.362 95.7021 141.43 94.85 142.502 93.4738C137.828 93.9257 133.315 92.1131 130.975 89.3141C133.155 88.5705 134.456 87.3182 135.602 85.6631C133.544 86.6236 130.975 86.9645 128.298 86.6236C131.548 85.8929 136.573 83.254 136.793 80.9173C135.941 81.8288 129.444 82.1696 125.721 82.1696ZM168.412 233.238C169.843 235.696 167.85 237.459 165.051 237.459C165.051 236.499 165.051 236.155 164.818 235.001C166.122 234.88 167.646 234.392 168.412 233.238ZM125.84 237.459C123.043 237.459 121.047 235.696 122.473 233.238C123.214 234.345 124.685 234.867 125.951 235.001C125.84 236.155 125.84 236.499 125.84 237.459ZM61.1153 154.077H60.6635C60.6376 154.041 60.6144 154.005 60.5783 153.966C60.7874 153.92 61.0069 153.92 61.2005 153.858C61.1876 153.933 61.1515 154.005 61.1153 154.077ZM57.7561 161.209L56.6251 160.54C57.0718 160.016 57.5237 160.016 57.9756 160.308C57.9756 160.648 57.9756 160.989 57.7561 161.209ZM55.5278 156.427C55.4193 156.427 55.4193 156.535 55.3109 156.646C54.6163 156.535 54.6163 155.732 54.7377 155.051C55.0682 155.051 55.3109 154.94 55.5278 154.71L55.6388 154.831L55.3109 155.051C55.4193 155.513 55.4193 155.965 55.5278 156.427ZM244.431 126.514C241.983 125.042 237.929 124.518 233.821 124.921C240.268 122.692 244.66 117.9 244.89 113.614C241.534 112.653 238.04 113.167 235.022 113.846C238.148 111.509 243.287 107.226 242.662 100.946C239.646 100.205 234.097 102.32 231.76 103.358C239.184 99.1827 241.861 89.3141 237.929 83.7162C235.595 85.0899 224.972 95.9216 223.255 97.1868C228.745 90.9072 231.311 86.3938 232.796 82.1696C234.562 77.558 234.67 69.515 228.974 66.8245C226.286 72.9956 216.867 88.79 211.623 95.3613C211.047 94.85 210.59 94.1555 209.844 94.047C208.592 98.0518 204.881 103.358 201.509 105.914C201.339 105.573 201 104.657 200.425 103.683C196.836 109.051 187.527 116.415 184.509 120.929C182.162 124.285 182.162 127.319 185.42 130.457C186.735 131.771 189.242 134.108 187.075 137.358C184.129 141.665 178.206 142.164 174.979 139.633C174.979 138.866 174.955 138.136 174.919 137.454C178.717 135.982 179.606 130.81 176.807 127.598C176.184 128.778 175.177 129.643 173.959 130.067C173.631 128.729 173.339 128.073 173.313 128.011L173.166 127.694L172.835 127.683C172.802 127.67 171.56 127.609 169.701 127.392C171.805 126.697 173.153 124.75 172.861 122.122C169.613 124.921 166.355 122.243 165.611 121.502C163.566 119.103 162.995 116.415 163.796 112.302C164.477 108.71 168.19 103.004 170.638 101.179C170.989 101.517 171.55 102.201 172.74 102.093C173.435 101.873 174.578 101.287 175.43 100.946C177.889 100.205 180.285 100.776 181.831 101.752C184.617 103.453 184.388 105.338 184.289 106.715C188.547 104.318 187.075 100.327 181.491 98.8419C185.309 98.8419 188.452 102.32 189.242 102.772C191.359 104.318 194.378 103.978 196.144 103.126C199.526 101.517 200.208 97.5276 199.294 96.7246C198.953 98.1602 197.871 99.4151 195.911 99.6449C193.014 99.9857 190.205 98.7179 187.99 97.7471C186.115 96.9544 183.071 96.3838 181.028 96.5051C184.85 94.3879 190.788 94.6202 192.893 97.8685C194.158 96.846 194.951 95.9216 195.304 93.8172C196.386 88.1186 191.932 85.1983 187.187 85.1983C187.308 83.8247 186.334 83.143 185.082 83.6052C185.082 83.0217 184.925 82.5724 184.604 82.34C184.715 82.3297 184.863 82.2806 184.961 82.2806C189.753 81.9501 194.266 80.4654 196.712 77.8989C201 73.3235 194.158 67.5061 196.603 63.003C198.953 64.0255 200.67 65.3398 203.908 65.7916C204.246 66.4862 204.54 67.8469 204.649 68.5906C205.682 73.6772 200.67 74.5267 201.971 79.9413C202.542 82.402 204.38 83.2541 205 86.1743C205 86.1743 205.232 88.2168 203.456 89.9958C207.572 90.1042 209.736 86.6236 208.47 83.3754C207.91 82.0611 206.474 80.7959 206.474 79.2622C208.592 82.0611 210.479 81.9501 213.725 80.9173C215.212 80.4654 215.333 82.5233 214.409 84.1784C216.635 82.8487 217.221 80.6849 217.221 79.7244C217.221 77.4367 215.442 76.3548 213.725 76.8144C212.764 76.9254 210.817 78.2397 210.709 76.3548C210.306 73.104 215.442 73.215 214.409 67.9709C213.849 65.3398 210.928 63.9042 206.366 63.3439C205.914 62.8842 204.77 61.7998 204.148 60.8857C201.643 56.7261 199.064 55.6416 197.517 56.4937C195.692 57.4051 194.731 58.2107 193.247 59.0008C192.041 59.6309 190.788 59.9743 189.985 60.8857C187.99 63.3439 189.874 67.1653 190.897 69.515C191.591 70.8757 193.247 74.0181 192.506 76.3548C191.7 79.1512 187.075 80.9173 184.289 81.4905C184.106 81.4905 183.998 81.5525 183.814 81.5525V80.4654C184.617 79.0298 185.309 77.3257 185.885 75.7816C187.77 70.7543 184.961 68.7119 180.809 67.7385C180.285 67.3977 179.714 67.2763 179.035 67.5061H178.911L178.803 68.3582L178.229 68.1878L178.351 67.1653H178.105C178.583 66.8244 178.803 66.2538 178.803 65.6832C178.803 65.0609 178.583 64.5987 178.351 64.2579H178.911L178.679 64.0255C178.583 63.7957 178.351 63.5762 177.997 63.2225C177.889 63.1141 177.778 62.8842 177.778 62.7732C177.889 62.8842 177.997 63.003 178.229 63.114C178.459 63.3438 178.803 63.5762 178.911 63.7957L179.252 64.0255V59.352L178.911 59.6309C178.803 59.7445 178.459 59.9743 178.229 60.2041C177.997 60.4365 177.889 60.4365 177.778 60.5475C177.778 60.4365 177.889 60.3125 177.997 60.0827C178.351 59.8658 178.583 59.5121 178.679 59.352L178.911 59.0008H174.238L174.47 59.352C174.687 59.5121 174.979 59.8658 175.211 60.0827C175.322 60.3125 175.43 60.4365 175.552 60.5475C175.43 60.4365 175.211 60.4365 175.087 60.2041C174.687 59.9743 174.47 59.7445 174.238 59.6309L174.008 59.352V64.0255L174.238 63.7957C174.47 63.5762 174.687 63.3438 175.087 63.114C175.211 63.003 175.43 62.8842 175.552 62.7732C175.43 62.8842 175.322 63.1141 175.211 63.2225C174.979 63.5762 174.687 63.7957 174.47 64.0255L174.238 64.2579H174.979C174.578 64.5987 174.47 65.0609 174.47 65.6832C174.47 66.2538 174.687 66.8244 175.087 67.1653H174.979L175.087 68.1878L174.47 68.3582L174.346 67.5061H174.238C173.556 67.2763 172.985 67.3977 172.52 67.7385C168.299 68.7119 165.502 70.7543 167.387 75.7816C167.961 77.3257 168.653 79.0298 169.502 80.4654V81.2091C165.27 79.8328 157.674 75.2084 155.631 72.4094C155.399 72.1306 155.228 71.9008 155.12 71.7304L155.097 71.7407L155.182 68.7119C156.654 66.2538 157.971 63.2225 159.003 60.4365C161.681 53.1835 157.736 50.1651 151.469 48.8999C150.836 48.4506 150.033 48.2182 149.011 48.559L148.791 49.7029L147.48 49.5944L147.588 48.1098C147.356 48.2182 147.136 48.2182 146.907 48.2182C147.805 47.7689 148.44 46.6715 148.44 45.5406C148.44 44.7402 148.037 43.7642 147.356 43.3149H148.44C147.805 42.7417 146.785 41.5359 146.566 40.7457C147.356 40.9652 148.562 42.0497 149.122 42.6332V36.6945C148.562 37.1464 147.356 38.2876 146.566 38.3987C146.785 37.7273 147.805 36.5732 148.44 35.9999H142.502C142.964 36.5732 144.105 37.7273 144.216 38.3987C143.524 38.2876 142.391 37.1464 141.758 36.6945V42.6332C142.391 42.0497 143.524 40.9652 144.216 40.7457C144.105 41.5359 142.964 42.7417 142.502 43.3149H143.524C142.842 43.7642 142.502 44.7402 142.502 45.5406C142.502 46.6715 143.072 47.7689 143.986 48.2182C143.756 48.2182 143.524 48.2182 143.183 48.1098L143.305 49.5944L141.99 49.7029L141.866 48.559C140.846 48.2182 140.056 48.4506 139.362 48.8999C133.155 50.1651 129.201 53.1835 131.889 60.4365C132.803 63.2225 134.118 66.2538 135.711 68.7119V71.8517C135.602 71.9601 135.481 72.1925 135.261 72.4094C133.266 75.2084 125.61 79.8328 121.388 81.2091V80.4654C122.24 79.0298 122.932 77.3257 123.505 75.7816C125.39 70.7543 122.591 68.7119 118.37 67.7385C117.895 67.3977 117.347 67.2763 116.655 67.5061H116.547L116.423 68.3582L115.852 68.1878L115.961 67.1653H115.852C116.19 66.8244 116.423 66.2538 116.423 65.6832C116.423 65.0609 116.314 64.5987 115.961 64.2579H116.655L116.423 64.0255C116.19 63.7957 115.961 63.5762 115.741 63.2225C115.633 63.1141 115.462 62.8842 115.341 62.7732C115.462 62.8842 115.741 63.003 115.852 63.114C116.19 63.3438 116.423 63.5762 116.655 63.7957L116.885 64.0255V59.352L116.655 59.6309C116.423 59.7445 116.19 59.9743 115.852 60.2041C115.741 60.4365 115.462 60.4365 115.341 60.5475C115.462 60.4365 115.633 60.3125 115.741 60.0827C115.961 59.8658 116.19 59.5121 116.423 59.352L116.655 59.0008H111.979L112.201 59.352C112.31 59.5121 112.601 59.8658 112.834 60.0827C113.053 60.3125 113.162 60.4365 113.162 60.5475C113.053 60.4365 112.942 60.4365 112.723 60.2041C112.431 59.9743 112.08 59.7445 111.979 59.6309L111.628 59.352V64.0255L111.979 63.7957C112.08 63.5762 112.431 63.3438 112.723 63.114C112.942 63.003 113.053 62.8842 113.162 62.7732C113.162 62.8842 113.053 63.1141 112.834 63.2225C112.601 63.5762 112.31 63.7957 112.201 64.0255L111.979 64.2579H112.601C112.31 64.5987 112.08 65.0609 112.08 65.6832C112.08 66.2538 112.31 66.8244 112.834 67.1653H112.601L112.723 68.1878L112.08 68.3582L111.979 67.5061H111.858C111.166 67.2763 110.608 67.3977 110.143 67.7385C105.919 68.7119 103.123 70.7543 105.008 75.7816C105.581 77.3257 106.273 79.0298 107.125 80.4654V81.5525C106.944 81.5525 106.784 81.4905 106.663 81.4905C103.864 80.9173 99.1902 79.1512 98.3872 76.3548C97.6436 74.0181 99.3142 70.8757 99.9855 69.515C101.067 67.1653 102.901 63.3439 100.967 60.8857C100.104 59.9743 98.8494 59.6309 97.6436 59.0008C96.1718 58.2107 95.25 57.4051 93.3755 56.4937C91.8779 55.6416 89.3216 56.7261 86.7448 60.8857C86.1844 61.7998 84.9786 62.8842 84.5139 63.3439C80.0133 63.9042 77.1034 65.3398 76.4837 67.9709C75.438 73.215 80.5866 73.104 80.2432 76.3548C80.1218 78.2397 78.1388 76.9254 77.2118 76.8144C75.438 76.3548 73.6718 77.4367 73.6718 79.7244C73.6718 80.6849 74.3044 82.8487 76.4837 84.1784C75.5696 82.5233 75.6781 80.4654 77.2118 80.9173C80.4652 81.9501 82.2881 82.0611 84.4054 79.2622C84.4054 80.7959 83.0421 82.0611 82.4224 83.3754C81.1572 86.6236 83.2616 90.1042 87.4367 89.9958C85.5493 88.2168 85.9392 86.1743 85.9392 86.1743C86.5253 83.2541 88.3508 82.402 88.9705 79.9413C90.2357 74.5267 85.211 73.6772 86.2929 68.5906C86.4013 67.8469 86.6337 66.4862 86.972 65.7916C90.2357 65.3398 91.9992 64.0255 94.2766 63.003C96.6237 67.5061 89.8819 73.3235 94.1656 77.8989C96.6237 80.4654 101.186 81.9501 105.919 82.2806C106.017 82.2806 106.177 82.34 106.299 82.3529C105.971 82.5724 105.8 83.0217 105.8 83.6052C104.558 83.143 103.585 83.8247 103.755 85.1983C98.8494 85.1983 94.5167 88.1186 95.5883 93.8172C95.9291 95.9216 96.7321 96.846 98.049 97.8685C100.104 94.6202 106.043 94.3879 109.913 96.5051C107.807 96.3838 104.778 96.9544 102.901 97.7471C100.724 98.7179 97.9405 99.9857 95.0306 99.6449C93.0191 99.4151 91.9992 98.1602 91.599 96.7246C90.685 97.5276 91.3692 101.517 94.7878 103.126C96.5023 103.978 99.5337 104.318 101.638 102.772C102.441 102.32 105.581 98.8419 109.415 98.8419C103.864 100.327 102.32 104.318 106.663 106.715C106.492 105.338 106.273 103.453 109.061 101.752C110.608 100.776 113.053 100.205 115.462 100.946C116.314 101.287 117.445 101.873 118.14 102.093C119.333 102.201 119.901 101.517 120.242 101.179C122.702 103.004 126.291 108.71 127.097 112.302C127.949 116.415 127.324 119.103 125.272 121.502C124.587 122.243 121.28 124.921 118.031 122.122C117.727 124.737 119.075 126.687 121.184 127.392C119.294 127.598 118.031 127.67 117.993 127.683L117.662 127.694L117.531 128.011C117.494 128.073 117.213 128.729 116.875 130.056C115.692 129.604 114.695 128.765 114.086 127.598C111.287 130.797 112.152 135.933 115.914 137.431C115.875 138.136 115.852 138.892 115.852 139.669C112.627 142.151 106.761 141.642 103.864 137.358C101.638 134.108 104.205 131.771 105.472 130.457C108.718 127.319 108.718 124.285 106.371 120.929C103.353 116.415 94.0468 109.051 90.4655 103.683C89.8819 104.657 89.5437 105.573 89.4198 105.914C86.0605 103.358 82.2881 98.0518 81.0487 94.047C80.3542 94.1555 79.8429 94.85 79.2723 95.3613C74.0746 88.79 64.6063 72.9956 61.9287 66.8245C56.2714 69.515 56.3798 77.558 58.1098 82.1696C59.6306 86.3938 62.2101 90.9072 67.6247 97.1868C65.9205 95.9216 55.3109 85.0899 52.9612 83.7162C49.0313 89.3141 51.7063 99.1827 59.1168 103.358C56.8446 102.32 51.2467 100.205 48.2283 100.946C47.6577 107.226 52.7314 111.509 55.8712 113.846C52.8528 113.167 49.3722 112.653 46 113.614C46.2324 117.9 50.6735 122.692 56.9531 124.921C52.9612 124.518 48.91 125.042 46.4493 126.514C46.914 130.968 51.9387 134.802 57.9756 135.716C53.9243 136.163 50.3327 137.942 48.4581 140.387C50.6735 143.297 53.9243 145.523 58.8973 145.412C57.7561 145.815 56.4418 146.605 55.3109 147.689C55.1869 147.578 54.9571 147.47 54.7377 147.47C54.4949 147.578 54.3968 147.919 54.4949 148.151V148.322C54.0199 148.663 53.7513 149.05 53.7048 149.466C53.2401 150.124 52.7676 150.901 52.5093 151.57C52.6333 151.632 52.7314 151.74 52.8528 151.802C52.8037 152.192 52.8889 152.629 53.1807 153.055C52.9612 153.287 52.8528 153.628 52.7314 153.966L49.8214 152.825C49.6639 155.466 50.2475 157.643 51.585 158.993C52.6333 160.186 53.8133 160.016 53.4725 160.419L56.6251 162.353C57.1829 163.556 58.3293 163.556 59.1168 163.215V163.447C59.1168 164.7 59.9818 165.722 61.1153 166.125C60.8958 167.16 61.3451 167.839 62.7807 168.302L74.6453 197.058C74.1831 198.421 74.6453 199.627 75.6781 200.074C75.438 200.417 75.2185 200.768 75.2185 201.453C75.6781 201.112 76.3623 200.99 76.7032 201.964C76.9226 202.643 75.6781 204.871 77.5681 206.356C77.3228 207.67 78.0174 209.033 79.3808 209.617C79.3808 210.299 80.0133 212.524 80.1218 213.315C79.2723 214.52 77.3228 216.346 77.5681 218.342C77.8005 219.777 78.3583 220.229 79.5021 220.567C79.0399 223.137 80.4652 224.28 82.6419 224.402C82.6419 226.276 84.4054 226.958 85.5493 227.067C86.6337 227.87 87.0933 228.21 88.3508 228.843C87.2044 230.206 88.0074 231.983 90.1117 232.556C90.3441 233.346 90.9173 234.041 92.1103 234.319C92.8022 235.463 94.0468 235.463 94.7878 235.123C95.25 234.893 96.0505 233.578 95.3585 232.435C95.8207 231.861 95.5883 230.777 95.25 230.095C95.9291 228.843 95.3585 227.299 94.3954 226.85C94.5167 226.155 94.1656 225.073 93.9358 224.402C95.5883 223.366 97.6436 222.055 98.3872 221.603C102.441 218.696 107.004 216.116 112.201 215.773C113.515 215.654 115.961 215.545 117.347 215.654C119.454 215.884 122.362 216.516 124.066 215.202C124.587 214.861 124.931 214.288 124.82 213.717C124.587 212.403 123.165 211.259 122.702 210.066C122.581 209.702 122.362 209.178 122.142 208.706C123.627 208.972 124.99 208.752 125.84 208.349C126.756 208.011 128.982 206.356 128.871 203.908C127.097 204.76 122.811 205.904 122.362 201.561C121.899 197.74 125.272 194.491 130.526 195.917C134.118 196.828 139.362 204.471 134.567 207.792C132.23 209.387 128.641 210.918 129.103 215.094C130.637 213.206 132.682 212.295 135.36 212.524C131.427 215.434 128.409 215.773 124.298 218.001C120.706 220.108 118.031 223.599 115.22 223.71C113.053 223.818 111.858 221.252 113.965 219.256C111.858 218.804 109.061 220.459 108.258 222.674C107.236 225.703 108.026 227.87 109.913 229.075C107.357 230.439 105.472 233.127 106.371 236.948C107.236 240.088 110.376 240.088 109.183 244.08C110.949 243.615 112.08 242.425 112.601 240.707C112.834 239.517 113.053 238.262 113.637 237.689C113.394 240.088 114.768 243.615 118.031 245.223C120.242 246.305 123.738 246.755 126.415 243.969C127.497 247.108 131.195 249.786 135.029 249.675C136.793 249.675 138.51 248.921 139.824 248.144C140.738 250.468 143.072 252.817 145.409 253.948C147.805 252.817 150.155 250.468 151.118 248.144C152.383 248.921 154.147 249.675 155.864 249.675C159.564 249.786 163.445 247.108 164.477 243.969C167.155 246.755 170.638 246.305 172.861 245.223C176.125 243.615 177.488 240.088 177.266 237.689C177.889 238.262 178.105 239.517 178.351 240.707C178.803 242.425 179.931 243.615 181.71 244.08C180.517 240.088 183.719 240.088 184.509 236.948C185.42 233.127 183.535 230.439 181.028 229.075C182.854 227.87 183.719 225.703 182.621 222.674C181.831 220.459 179.035 218.804 176.915 219.256C179.035 221.252 177.889 223.818 175.66 223.71C172.861 223.599 170.186 220.108 166.584 218.001C162.484 215.773 159.455 215.434 155.52 212.524C158.198 212.295 160.318 213.206 161.789 215.094C162.252 210.918 158.663 209.387 156.313 207.792C151.58 204.471 156.775 196.828 160.426 195.917C165.611 194.491 169.042 197.74 168.529 201.561C167.961 205.904 163.796 204.76 161.911 203.908C161.911 206.356 164.124 208.011 165.051 208.349C166.122 208.863 168.092 209.129 169.869 208.375C169.809 208.801 169.734 209.263 169.734 209.387C169.386 213.098 167.387 213.438 168.069 214.97C169.042 216.116 175.43 215.884 177.145 216.237C180.176 216.638 182.745 217.771 185.653 218.342C188.904 219.023 192.382 219.023 195.304 220.229C197.176 221.032 199.294 222.563 201.119 223.477C203.908 223.94 203.456 225.073 205.232 225.073C206.826 225.073 207.448 223.71 209.506 223.137C210.928 222.798 212.522 223.366 213.944 222.907C214.982 222.674 215.442 221.603 216.415 221.032C217.562 220.338 219.155 220.338 220.239 219.364C220.81 218.863 220.918 217.89 220.833 217.211L220.856 217.368C223.036 215.835 224.688 213.609 225.605 211.029C226.175 210.918 226.625 210.407 226.625 209.836V209.617C227.198 209.152 227.539 208.46 227.539 207.792C227.539 206.927 227.198 206.247 226.625 205.674V205.442C226.625 204.993 226.395 204.652 226.175 204.36C225.264 199.395 221.489 195.403 216.635 194.148V193.918H216.526C216.526 193.688 216.415 193.567 216.245 193.567C215.55 192.885 214.747 191.814 214.652 191.119C215.442 191.352 216.756 192.604 217.438 193.115V186.557C216.756 187.068 215.442 188.323 214.652 188.553C214.747 187.747 216.002 186.324 216.635 185.754H209.965C210.59 186.324 211.84 187.747 211.951 188.553C211.158 188.323 209.844 187.068 209.165 186.557V193.115C209.844 192.604 211.158 191.352 211.951 191.119C211.84 191.922 210.59 193.345 209.965 193.918L210.198 194.029C205.232 195.17 201.23 199.286 200.316 204.36C199.975 204.652 199.743 204.993 199.743 205.442V205.674C199.172 206.247 198.832 206.927 198.832 207.792C198.832 208.46 199.172 209.152 199.743 209.617V209.836C199.743 210.578 200.208 210.918 200.768 211.029C201 211.662 201.277 212.295 201.569 212.865C201.569 212.806 201.569 212.806 201.643 212.744C201.23 214.631 198.953 215.773 198.439 215.773C194.378 216.346 189.874 214.631 185.761 213.098C183.949 212.403 181.491 211.613 180.285 209.836C179.544 208.548 179.229 207.73 179.606 206.586C180.055 207.159 180.809 207.792 181.831 208.349C181.942 207.792 181.942 207.159 182.162 206.697C183.205 208.241 184.85 209.033 186.843 208.922C185.653 207.903 185.082 205.212 185.653 202.875C187.308 205.674 193.587 206.247 194.731 201.22C192.382 202.315 190.897 201.112 190.448 199.857C189.753 197.848 192.041 192.994 189.985 189.234C188.328 186.446 186.458 184.731 182.064 184.05C182.402 183.525 182.513 183.063 182.621 182.273C178.583 183.758 175.087 182.614 173.435 179.363C174.238 179.704 175.43 179.828 176.574 179.828C172.985 176.908 173.205 168.632 175.784 164.359C176.125 164.129 176.233 163.897 176.574 163.788C177.364 165.381 179.714 165.381 180.904 166.698C181.369 166.233 181.599 166.125 182.064 165.722C182.064 165.722 182.162 172.516 182.621 175.312C183.071 178.452 186.115 178.111 187.649 179.487C189.474 177.478 192.784 177.587 192.273 174.109C191.811 170.638 191.129 167.501 191.018 165.152C192.041 167.269 194.037 175.201 194.842 177.478C196.144 180.85 199.402 179.828 201.23 181.142C202.434 178.793 205.452 178.111 204.246 174.568C203.908 173.657 198.953 163.215 198.212 161.209C199.975 163.788 204.77 172.975 206.255 175.544C207.91 178.222 210.928 176.908 213.095 177.587C213.508 175.653 216.415 173.427 214.301 170.068C211.623 165.611 205.341 157.849 205 156.768C206.255 157.958 216.002 170.068 216.756 170.747C219.034 172.745 222.341 171.199 224.288 171.199C224.288 168.983 226.054 166.466 223.5 163.897C221.148 161.671 215.783 157.849 214.652 156.535C218.228 158.993 222.462 162.926 224.972 163.556C229.424 164.7 231.019 162.926 232.685 162.242C231.311 158.19 233.137 156.316 223.717 152.373C231.871 155.283 235.471 153.847 238.381 151.57C237.237 148.663 234.33 146.215 231.98 145.412C236.956 145.523 240.268 143.297 242.435 140.387C240.607 137.942 236.956 136.163 232.796 135.716C238.951 134.802 243.857 130.968 244.431 126.514Z" fill="#EAF5DE"></path> </svg> 