<svg width="122" height="22" viewBox="0 0 122 22" fill="none" xmlns="http://www.w3.org/2000/svg">
<path d="M12.3108 0.000123609H6.45412C6.36715 0.000123609 6.28058 0.034267 6.22134 0.0985376L0.0802763 6.72504C-0.0968696 6.92207 0.0451285 7.22856 0.317074 7.22856H6.31593L12.5474 0.503645C12.7287 0.306615 12.5829 0.000123609 12.3108 0.000123609ZM12.3148 7.22856H6.31593L0.0802763 13.9611C-0.100887 14.1541 0.0451283 14.4606 0.313257 14.4606H6.31593L12.5474 7.73188C12.7287 7.53887 12.5829 7.22856 12.3148 7.22856ZM12.5395 14.9754L6.41053 21.5906C6.34767 21.6549 6.2607 21.6929 6.17012 21.6929H0.329125C0.0529618 21.6929 -0.0930535 21.3785 0.0885111 21.1819L6.31593 14.4606H12.2989C12.5749 14.4606 12.7209 14.7749 12.5395 14.9754Z" fill="#94C53F"/>
<path d="M19.8846 17.8892V3.61566H29.1866V5.72313H22.405V9.38917H27.9726V11.5199H22.405V15.7815H29.1181V17.8892H19.8846Z" fill="white"/>
<path d="M34.3759 17.6715C33.7115 17.4037 33.1311 17.032 32.6346 16.556C32.1381 16.0804 31.7527 15.5154 31.4777 14.8614C31.2029 14.2075 31.0654 13.4862 31.0654 12.6981C31.0654 11.9397 31.2029 11.2267 31.4777 10.5573C31.7527 9.88829 32.1381 9.30463 32.6346 8.80694C33.1311 8.30884 33.7115 7.91478 34.3759 7.62476C35.0407 7.33454 35.7694 7.18973 36.5639 7.18973C37.5414 7.18973 38.397 7.3731 39.1297 7.73964C39.863 8.10639 40.4433 8.61011 40.8715 9.25201L39.428 10.8327L39.2904 10.9931L39.107 10.8554C39.107 10.7332 39.0918 10.6077 39.0612 10.4774C39.0305 10.3478 38.9313 10.1912 38.7634 10.0078C38.4732 9.71797 38.1522 9.52315 37.8013 9.42393C37.4495 9.32431 37.0449 9.27471 36.587 9.27471C36.205 9.27471 35.8421 9.35163 35.4984 9.50548C35.155 9.65892 34.8455 9.87825 34.5705 10.163C34.2956 10.448 34.0819 10.8029 33.929 11.2267C33.7764 11.6509 33.6999 12.141 33.6999 12.6963C33.6999 13.194 33.7802 13.6437 33.9407 14.0456C34.101 14.4479 34.3145 14.7915 34.582 15.0767C34.8493 15.3617 35.1622 15.5811 35.5213 15.7345C35.88 15.8884 36.2582 15.9647 36.6557 15.9647C36.9763 15.9647 37.2894 15.9189 37.5949 15.8273C37.9006 15.7355 38.2022 15.5947 38.5001 15.4035C38.7979 15.2129 39.0763 14.9568 39.336 14.6363L40.7795 16.2854C40.2145 16.9123 39.5575 17.3662 38.809 17.649C38.0606 17.9312 37.3044 18.0728 36.5408 18.0728C35.7621 18.0728 35.0407 17.9386 34.3759 17.6715Z" fill="white"/>
<path d="M47.3321 16.0103C47.8364 16.0103 48.2714 15.8671 48.6382 15.5799C49.0047 15.2926 49.2985 14.8954 49.5201 14.3874C49.7414 13.8795 49.8525 13.2942 49.8525 12.6316C49.8525 11.9395 49.7414 11.3436 49.5201 10.8427C49.2985 10.3426 49.0047 9.95577 48.6382 9.68343C48.2714 9.41128 47.8364 9.27471 47.3321 9.27471C46.8737 9.27471 46.4576 9.41128 46.0834 9.68343C45.7092 9.95577 45.4114 10.3426 45.19 10.8427C44.9685 11.3436 44.8576 11.9395 44.8576 12.6316C44.8576 13.2942 44.9647 13.8795 45.1782 14.3874C45.3925 14.8954 45.6863 15.2926 46.0605 15.5799C46.4347 15.8671 46.8587 16.0103 47.3321 16.0103ZM47.3321 18.0728C46.3847 18.0728 45.5259 17.8448 44.7544 17.3895C43.9832 16.9342 43.3762 16.2961 42.9335 15.4752C42.4901 14.6542 42.2687 13.7062 42.2687 12.6312C42.2687 11.6013 42.4901 10.6758 42.9335 9.85455C43.3762 9.03349 43.9832 8.38375 44.7544 7.90634C45.5259 7.42853 46.3847 7.18953 47.3321 7.18953C48.2943 7.18953 49.1608 7.42853 49.9326 7.90634C50.7037 8.38375 51.3148 9.03349 51.7653 9.85455C52.2154 10.6758 52.4412 11.6013 52.4412 12.6312C52.4412 13.7062 52.2154 14.6542 51.7653 15.4752C51.3148 16.2961 50.7037 16.9342 49.9326 17.3895C49.1608 17.8448 48.2943 18.0728 47.3321 18.0728Z" fill="white"/>
<path d="M57.6426 9.80248H59.7273C60.4606 9.80248 61.0107 9.63035 61.3771 9.28691C61.7434 8.94326 61.927 8.47368 61.927 7.87798C61.927 7.49637 61.8467 7.15614 61.6866 6.85848C61.5259 6.56043 61.2813 6.31961 60.9531 6.13664C60.6247 5.95327 60.216 5.86169 59.7273 5.86169H57.6426V9.80248ZM55.0308 17.8901V3.61643H59.544C60.7201 3.61643 61.6784 3.78836 62.4195 4.1318C63.1602 4.47545 63.7061 4.96431 64.0574 5.59797C64.4087 6.23225 64.5844 6.96935 64.5844 7.80929C64.5844 8.32847 64.4737 8.84786 64.2526 9.36705C64.0309 9.88623 63.7218 10.3524 63.3245 10.7647C62.9272 11.1769 62.454 11.4902 61.9041 11.7039L64.9742 17.8901H62.2478L59.361 11.9559H57.6426V17.8901H55.0308Z" fill="white"/>
<path d="M71.1604 16.0103C71.6646 16.0103 72.0996 15.8671 72.4665 15.5799C72.8329 15.2926 73.1269 14.8954 73.3485 14.3874C73.5698 13.8795 73.6807 13.2942 73.6807 12.6316C73.6807 11.9395 73.5698 11.3436 73.3485 10.8427C73.1269 10.3426 72.8329 9.95577 72.4665 9.68343C72.0996 9.41128 71.6646 9.27471 71.1604 9.27471C70.7021 9.27471 70.286 9.41128 69.9116 9.68343C69.5374 9.95577 69.2398 10.3426 69.0182 10.8427C68.7967 11.3436 68.6858 11.9395 68.6858 12.6316C68.6858 13.2942 68.7929 13.8795 69.0066 14.3874C69.2207 14.8954 69.5147 15.2926 69.8889 15.5799C70.2631 15.8671 70.6871 16.0103 71.1604 16.0103ZM71.1604 18.0728C70.2129 18.0728 69.354 17.8448 68.5828 17.3895C67.8113 16.9342 67.2046 16.2961 66.7617 15.4752C66.3185 14.6542 66.0969 13.7062 66.0969 12.6312C66.0969 11.6013 66.3185 10.6758 66.7617 9.85455C67.2046 9.03349 67.8113 8.38375 68.5828 7.90634C69.354 7.42853 70.2129 7.18953 71.1604 7.18953C72.1225 7.18953 72.9891 7.42853 73.761 7.90634C74.5318 8.38375 75.143 9.03349 75.5937 9.85455C76.0438 10.6758 76.2696 11.6013 76.2696 12.6312C76.2696 13.7062 76.0438 14.6542 75.5937 15.4752C75.143 16.2961 74.5318 16.9342 73.761 17.3895C72.9891 17.8448 72.1225 18.0728 71.1604 18.0728Z" fill="white"/>
<path d="M81.7675 18.0728C81.3397 18.0728 80.9348 18.0167 80.5532 17.9048C80.1714 17.7934 79.8278 17.6223 79.5221 17.3911C79.2166 17.1607 78.9527 16.8663 78.732 16.5094C78.5104 16.1521 78.3383 15.7239 78.2164 15.2248C78.0939 14.7265 78.033 14.1567 78.033 13.5162V7.41889H80.6448V13.4794C80.6448 13.9381 80.683 14.3268 80.7595 14.6449C80.8356 14.9635 80.9505 15.2219 81.1031 15.4218C81.2556 15.6216 81.4351 15.7658 81.6414 15.8546C81.8477 15.943 82.0652 15.9876 82.2946 15.9876C82.6153 15.9876 82.9094 15.9323 83.1769 15.8215C83.4436 15.7104 83.6726 15.5439 83.864 15.322C84.0548 15.0996 84.2036 14.8225 84.3107 14.4893C84.4173 14.1567 84.4713 13.7608 84.4713 13.3015V7.41889H87.0602V16.2228C87.0602 16.5536 87.0713 16.8496 87.0942 17.1125C87.1173 17.3752 87.1819 17.6341 87.289 17.8894H84.9293C84.8527 17.7265 84.7993 17.5634 84.769 17.4007C84.7381 17.238 84.719 17.0705 84.7115 16.8996C84.7039 16.7283 84.7001 16.57 84.7001 16.423C84.5322 16.6829 84.3412 16.9155 84.1273 17.122C83.9132 17.3282 83.6804 17.4999 83.4285 17.6373C83.1769 17.7751 82.9094 17.882 82.6268 17.9581C82.3438 18.0344 82.0576 18.0728 81.7675 18.0728Z" fill="white"/>
<path d="M98.7682 16.8817C98.248 17.2633 97.6957 17.5564 97.1072 17.7635C96.5189 17.9703 95.8881 18.0728 95.2172 18.0728C94.6048 18.0728 94.0746 17.9741 93.6247 17.7795C93.1746 17.5847 92.799 17.2694 92.502 16.8335C92.2045 16.3977 91.9896 15.8193 91.8611 15.0982C91.7305 14.377 91.6884 13.4834 91.7346 12.4169L91.8513 9.45848H89.6719L89.7181 7.4199H91.9314L92.0318 4.89326L94.7133 4.55383L94.92 4.53173L94.9421 4.73459C94.88 4.83903 94.8196 4.94347 94.7593 5.04791C94.697 5.15415 94.6589 5.33311 94.645 5.58818L94.4962 7.4199H97.9206L97.8965 9.45848H94.4741L94.3235 12.3487C94.2775 13.3226 94.3116 14.0757 94.4261 14.6062C94.5404 15.1384 94.7171 15.5019 94.9541 15.6967C95.1891 15.8916 95.4763 15.988 95.8117 15.988C96.302 15.988 96.7396 15.8896 97.1293 15.6907C97.5189 15.4919 97.8824 15.2627 98.2179 15.0018L98.7682 16.8817Z" fill="white"/>
<path d="M103.259 11.4055H107.795C107.795 11.0572 107.746 10.7451 107.646 10.4693C107.547 10.1934 107.406 9.9612 107.222 9.7726C107.039 9.58361 106.814 9.44241 106.546 9.34781C106.279 9.25322 105.97 9.20582 105.618 9.20582C105.328 9.20582 105.049 9.24599 104.782 9.32592C104.515 9.40566 104.274 9.54002 104.061 9.72842C103.847 9.91761 103.671 10.1502 103.534 10.4256C103.397 10.7015 103.305 11.0281 103.259 11.4055ZM106.031 18.0728C105.267 18.0728 104.561 17.9535 103.912 17.715C103.262 17.4768 102.698 17.1306 102.216 16.6761C101.735 16.222 101.365 15.6596 101.105 14.989C100.845 14.3189 100.716 13.5589 100.716 12.7094C100.716 11.8455 100.845 11.0709 101.105 10.3856C101.365 9.7005 101.72 9.11945 102.171 8.64244C102.621 8.16564 103.152 7.80431 103.763 7.55888C104.374 7.31305 105.031 7.18973 105.733 7.18973C106.359 7.18973 106.947 7.29497 107.497 7.50485C108.047 7.71454 108.532 8.03308 108.953 8.46088C109.372 8.88828 109.704 9.42032 109.949 10.0578C110.193 10.6951 110.315 11.4336 110.315 12.2733C110.315 12.4232 110.312 12.6033 110.304 12.813C110.296 13.0233 110.285 13.203 110.27 13.3529H103.213C103.243 13.8289 103.342 14.2366 103.511 14.5752C103.679 14.9139 103.9 15.1918 104.175 15.4079C104.45 15.6242 104.756 15.7861 105.092 15.8946C105.427 16.0024 105.779 16.0567 106.146 16.0567C106.466 16.0567 106.776 16.0261 107.073 15.9647C107.371 15.9038 107.654 15.7968 107.921 15.6441C108.189 15.4917 108.444 15.2926 108.689 15.0484L110.018 16.3316C109.682 16.7287 109.303 17.0611 108.883 17.3282C108.463 17.5953 108.013 17.7863 107.532 17.901C107.051 18.0153 106.55 18.0728 106.031 18.0728Z" fill="white"/>
<path d="M122 8.40439L120.9 10.5816L120.831 10.7643L120.624 10.6739C120.58 10.5512 120.534 10.4249 120.488 10.2944C120.441 10.1658 120.327 10.0172 120.144 9.84827C119.929 9.67976 119.704 9.55122 119.467 9.45883C119.23 9.36644 118.975 9.32025 118.7 9.32025C118.335 9.32025 117.983 9.3805 117.646 9.50101C117.31 9.61951 117.017 9.8061 116.764 10.0592C116.513 10.3124 116.314 10.6378 116.17 11.0335C116.023 11.4271 115.951 11.8931 115.951 12.4313V17.8901H113.315V7.42025H115.997L115.985 9.15756C116.013 9.0951 116.045 9.03505 116.077 8.9768C116.284 8.61126 116.543 8.28991 116.856 8.01475C117.17 7.73939 117.513 7.53473 117.887 7.39595C118.26 7.25957 118.648 7.18928 119.043 7.18928C119.64 7.18928 120.178 7.28568 120.658 7.47648C121.141 7.66729 121.588 7.97659 122 8.40439Z" fill="white"/>
</svg>
